<svg width="198" height="106" viewBox="0 0 198 106" fill="none" xmlns="http://www.w3.org/2000/svg">
  <path d="M174.795 71.73C169.225 70.44 164.161 67.018 159.379 63.21C163.339 60.225 166.994 57.48 170.104 55.817C198.104 40.837 197.012 76.887 174.794 71.731L174.795 71.73ZM147.202 63.734C145.346 64.652 143.437 65.452 141.532 66.017C139.632 66.579 137.734 66.914 135.9 66.914C134.287 66.914 132.833 66.437 131.546 65.602C134.699 62.182 138.126 58.042 141.016 53.632C143.558 55.302 146.043 56.995 148.459 58.689C149.613 59.499 150.777 60.309 151.954 61.119C150.432 62.029 148.842 62.925 147.202 63.734ZM106.182 42.877C82.524 25.273 75.674 88.42 66.642 88.172C56.876 87.902 79.816 54.92 81.745 52.004C83.995 48.592 88.825 41.274 92.25 33.734C95.795 34.112 99.33 34.714 102.835 35.55C108.645 36.94 114.37 39.07 119.955 41.657C115.195 51.925 113.845 64.553 119.797 71.915C118.533 72.702 117.263 73.389 115.997 73.935C99.685 81.028 117.046 50.951 106.182 42.877ZM70.673 32.197C74.583 24.94 78.16 19.969 80.436 20.721C83.096 21.597 82.156 25.866 79.846 31.023C76.744 31.29 73.694 31.691 70.674 32.197H70.673ZM53.098 64.45C48.568 73.063 40.075 88.47 30.298 92.354C21.015 96.042 20.448 88.938 24.132 82.346C33.09 66.366 48.389 52.076 56.874 37.602C60.336 36.649 63.804 35.794 67.259 35.1C61.544 47.906 57.714 55.664 53.098 64.45ZM27.152 43.62C6.48 49.362 6.78601 30.856 17.452 18.348C23.392 11.372 35.232 2.726 45.087 7.368C47.47 8.492 48.945 10.838 48.649 14.94C47.899 25.17 41.259 33.505 35.013 41.416C32.463 42.153 29.853 42.891 27.176 43.612L27.151 43.619L27.152 43.62ZM129.555 63.889C125.512 59.467 123.765 50.989 124.629 43.951C129.483 46.451 134.207 49.251 138.752 52.168C138.277 53.146 137.785 54.003 137.314 54.668C135.271 57.552 132.584 60.813 129.554 63.888L129.555 63.889ZM137.024 33.185C142.564 35.247 142.104 42.657 140.21 48.519C135.424 45.337 130.535 42.409 125.487 39.874C127.197 34.414 130.967 30.939 137.027 33.186L137.024 33.185ZM188.817 51.723C178.294 47.329 166.272 52.033 157.311 57.758C156.506 58.273 155.651 58.824 154.755 59.392C152.355 57.372 150.017 55.409 147.693 53.73C146.133 52.603 144.57 51.49 142.993 50.41C146.927 43.542 149.123 36.345 146.677 30.47C146.244 29.412 145.557 28.47 144.593 27.705C136.785 21.425 127.633 27.928 121.783 38.11C112.965 34.108 103.63 31.406 93.507 30.79C97.169 21.574 97.962 12.752 88.589 11.1C77.899 9.204 71.336 25.758 68.359 32.618C65.035 33.243 61.729 33.988 58.416 34.815C62.198 27.555 64.062 20.219 62.336 12.575C55.062 -19.715 -3.984 20.157 0.236004 42.448C2.111 52.311 14.086 51.678 22.059 49.065C25.186 48.042 28.371 46.942 31.595 45.823C24.21 55.513 17 65.729 10.638 76.073C4.224 86.483 -0.171995 108.751 20.221 105.178C33.903 102.77 44.878 87.616 50.798 76.395C52.978 72.258 61.598 49.809 69.363 34.692C70.293 34.524 71.218 34.356 72.148 34.212C74.323 33.872 76.501 33.634 78.678 33.484C74.596 41.652 68.135 50.98 67.108 52.666C62.705 59.89 56.94 68.211 54.474 76.351C51.224 87.105 56.141 98.566 67.884 90.318C74.424 85.724 79.917 70.993 83.304 61.712C84.547 58.322 89.619 48.044 94.019 48.015C102.873 47.958 95.975 70.097 96.309 74.753C97.417 90.066 113.479 81.05 122.249 74.325C122.771 74.725 123.326 75.107 123.926 75.455C134.146 81.395 146.696 72.712 157.374 64.722C162.437 67.942 167.754 70.82 173.42 72.62C179.48 74.554 187.38 75.69 193.107 72.122C202.62 66.182 196.583 54.963 188.817 51.723Z" fill="#222"/>
</svg>
